<svg width="18" height="19" viewBox="0 0 18 19" fill="none" xmlns="http://www.w3.org/2000/svg">
<path d="M2 0.5C0.897 0.5 0 1.397 0 2.5V16.5C0 17.603 0.897 18.5 2 18.5H8.62109H11.4141H16C17.103 18.5 18 17.603 18 16.5V2.5C18 1.397 17.103 0.5 16 0.5H2ZM2 2.5H16L16.002 16.5H11.4141V12.5352H13.7793L14.1309 9.81055H11.4297V8.07422C11.4297 7.28622 11.6493 6.75391 12.7793 6.75391H14.207V4.32227C13.512 4.25127 12.8142 4.21675 12.1152 4.21875C10.0412 4.21875 8.62109 5.48459 8.62109 7.80859V9.81445H6.27734V12.5391H8.62109V16.5H2V2.5Z" fill="currentColor"/>
</svg>
