<svg width="18" height="19" viewBox="0 0 18 19" fill="none" xmlns="http://www.w3.org/2000/svg">
<path d="M2 0.5C0.895 0.5 0 1.395 0 2.5V16.5C0 17.605 0.895 18.5 2 18.5H16C17.105 18.5 18 17.605 18 16.5V2.5C18 1.395 17.105 0.5 16 0.5H2ZM2 2.5H16V16.5H2V2.5ZM4.7793 3.81641C3.9223 3.81641 3.4082 4.33158 3.4082 5.01758C3.4082 5.70358 3.92236 6.2168 4.69336 6.2168C5.55036 6.2168 6.06445 5.70358 6.06445 5.01758C6.06445 4.33158 5.5503 3.81641 4.7793 3.81641ZM3.47656 7.5V14.5H6V7.5H3.47656ZM8.08203 7.5V14.5H10.6055V10.6738C10.6055 9.53483 11.4181 9.37109 11.6621 9.37109C11.9061 9.37109 12.5586 9.61583 12.5586 10.6738V14.5H15V10.6738C15 8.47683 14.0237 7.5 12.8027 7.5C11.5817 7.5 10.9305 7.90656 10.6055 8.47656V7.5H8.08203Z" fill="currentColor"/>
</svg>
