<svg width="1564" height="332" fill="none" xmlns="http://www.w3.org/2000/svg"><g clip-path="url(#a)"><path d="M1172 240.05h-36V227h86.85v13.05h-36V332H1172v-91.95ZM1315.39 318.95V332h-76.2V227h74.1v13.05h-59.1v32.25h52.65v12.75h-52.65v33.9h61.2ZM1406.58 305.75h-55.8L1339.23 332h-15.45l47.55-105h14.85l47.7 105h-15.75l-11.55-26.25Zm-5.25-12-22.65-51.45-22.65 51.45h45.3ZM1546.89 332l-.15-76.5-37.95 63.75h-6.9l-37.95-63.3V332h-14.4V227h12.3l43.8 73.8 43.2-73.8h12.3l.15 105h-14.4Z" fill="#000"/><path d="M250.005 70c19.33 0 35-15.67 35-35s-15.67-35-35-35-35 15.67-35 35 15.67 35 35 35Z" fill="#EF4523"/><path fill-rule="evenodd" clip-rule="evenodd" d="M849.526 82.054v62.826c0 31.594 15.843 47.391 47.53 47.391h110.404v-94.51h-63.282v31.412h31.506v31.414h-79.035a13.943 13.943 0 0 1-11.817-3.925 13.873 13.873 0 0 1-3.363-5.427 13.828 13.828 0 0 1-.573-6.355V82.054a13.523 13.523 0 0 1 3.767-11.951 13.579 13.579 0 0 1 5.531-3.343 13.618 13.618 0 0 1 6.455-.413h110.401V34.934H896.649c-31.415 0-47.123 15.706-47.123 47.12ZM1020.9 192h31.51V34.934h-31.51V192Zm44.28-125.653h109.86l-109.86 94.24V192h157.73v-31.413h-109.59l109.59-94.24V34.934h-157.73v31.413ZM1235.54 192h157.73v-31.413h-126.16v-31.414h94.58V97.76h-94.58V66.347h126.16V34.934h-157.73V192Zm328.09-94.24V82.054c0-31.594-15.85-47.391-47.53-47.391h-110.2v157.066h31.57v-47.39h33.95l47.53 47.39h44.68l-47.53-47.39c31.64.361 47.48-15.166 47.53-46.579Zm-31.58 0c.31 2.134.11 4.31-.57 6.355a13.809 13.809 0 0 1-3.36 5.427 13.968 13.968 0 0 1-11.82 3.925h-78.83v-47.39h78.83c2.15-.384 4.37-.242 6.46.412 2.08.654 3.98 1.8 5.53 3.343a13.646 13.646 0 0 1 3.35 5.515c.66 2.08.8 4.289.41 6.436V97.76Z" fill="#EF4523"/><path fill-rule="evenodd" clip-rule="evenodd" d="M.374 82.054v62.826c0 31.594 15.843 47.391 47.53 47.391h110.133v-31.684H47.904a14.034 14.034 0 0 1-6.445-.498 13.988 13.988 0 0 1-5.533-3.334 13.942 13.942 0 0 1-3.438-5.458 13.909 13.909 0 0 1-.609-6.417V82.054a13.907 13.907 0 0 1 .61-6.417 13.94 13.94 0 0 1 3.437-5.458 13.995 13.995 0 0 1 5.533-3.334 14.027 14.027 0 0 1 6.444-.498h110.134V34.934H47.904c-31.687 0-47.53 15.706-47.53 47.12Zm296.518 0c.292 2.13.086 4.3-.603 6.339a13.939 13.939 0 0 1-3.365 5.411 14.022 14.022 0 0 1-11.785 3.956H218.06a14.024 14.024 0 0 1-11.833-3.925 13.915 13.915 0 0 1-3.988-11.781V34.663h-31.505v47.39c0 31.594 15.843 47.391 47.53 47.391h15.752v62.827h31.166v-63.097h15.821c31.687 0 47.53-15.797 47.53-47.391v-47.39h-31.641v47.66Zm151.076-47.391H337.563v157.066h110.405c31.687 0 47.53-15.797 47.53-47.39a43.716 43.716 0 0 0-9.981-31.684c6.654-6.409 9.981-16.88 9.981-31.414-.317-30.916-16.16-46.352-47.53-46.307v-.271Zm0 125.653h-78.831v-31.142h78.831a13.615 13.615 0 0 1 6.455.412 13.584 13.584 0 0 1 5.531 3.343 13.53 13.53 0 0 1 3.353 5.515 13.5 13.5 0 0 1 .414 6.436 13.84 13.84 0 0 1-.573 6.355 13.873 13.873 0 0 1-3.363 5.427 13.957 13.957 0 0 1-11.817 3.925v-.271Zm0-62.826h-78.831V66.347h78.831a13.618 13.618 0 0 1 6.455.413 13.58 13.58 0 0 1 5.531 3.343 13.534 13.534 0 0 1 3.353 5.515 13.5 13.5 0 0 1 .414 6.436c.307 2.133.11 4.31-.573 6.354a13.876 13.876 0 0 1-3.363 5.428 13.932 13.932 0 0 1-5.444 3.353 13.958 13.958 0 0 1-6.373.571v-.27Zm59.956 94.239H665.79v-31.142H539.497v-31.413h94.584V97.76h-94.584V66.347H665.79V34.934H507.924v156.795Zm328.023-94.24V82.055c0-31.594-15.843-47.391-47.53-47.391H678.284v157.066h31.573v-47.39h33.95l47.53 47.39h44.678l-47.53-47.39c31.641.361 47.462-15.165 47.462-46.579v-.27Zm-31.506 0a13.838 13.838 0 0 1-3.936 11.782 13.909 13.909 0 0 1-5.443 3.354 13.957 13.957 0 0 1-6.373.571h-78.832v-47.39h78.832a13.613 13.613 0 0 1 11.986 3.755 13.512 13.512 0 0 1 3.766 11.951V97.49Z" fill="#000"/></g><defs><clipPath id="a"><path fill="#fff" d="M0 0h1564v332H0z"/></clipPath></defs></svg>