<svg width="250" height="250" viewBox="0 0 250 250" fill="none" xmlns="http://www.w3.org/2000/svg">
<rect width="250" height="250" rx="125" fill="#E0E0E0"/>
<g clip-path="url(#clip0_5970_32469)">
<path d="M125 138.672C155.206 138.672 179.688 113.754 179.688 83.0078C179.688 52.2621 155.206 27.3438 125 27.3438C94.7937 27.3438 70.3125 52.2621 70.3125 83.0078C70.3125 113.754 94.7937 138.672 125 138.672ZM163.281 152.588H156.146C146.661 157.024 136.108 159.546 125 159.546C113.892 159.546 103.381 157.024 93.8538 152.588H86.7187C55.0171 152.588 29.2969 178.767 29.2969 211.035V229.126C29.2969 240.65 38.4827 250 49.8047 250H200.195C211.517 250 220.703 240.65 220.703 229.126V211.035C220.703 178.767 194.983 152.588 163.281 152.588Z" fill="white"/>
</g>
<defs>
<clipPath id="clip0_5970_32469">
<rect width="191.406" height="222.656" fill="white" transform="translate(29.2969 27.3438)"/>
</clipPath>
</defs>
</svg>
