<svg width="24" height="25" viewBox="0 0 24 25" fill="none" xmlns="http://www.w3.org/2000/svg">
<path d="M10.8995 2.59998C6.29952 3.09998 2.59952 6.79998 2.09952 11.3C1.59952 16 4.29952 20.2 8.39952 21.8C8.69952 21.9 8.99952 21.7 8.99952 21.3V19.7C8.99952 19.7 8.59952 19.8 8.09952 19.8C6.69952 19.8 6.09952 18.6 5.99952 17.9C5.89952 17.5 5.69952 17.2 5.39952 16.9C5.09952 16.8 4.99952 16.8 4.99952 16.7C4.99952 16.5 5.29952 16.5 5.39952 16.5C5.99952 16.5 6.49952 17.2 6.69952 17.5C7.19952 18.3 7.79952 18.5 8.09952 18.5C8.49952 18.5 8.79952 18.4 8.99952 18.3C9.09952 17.6 9.39952 16.9 9.99952 16.5C7.69952 16 5.99952 14.7 5.99952 12.5C5.99952 11.4 6.49952 10.3 7.19952 9.49998C7.09952 9.29998 6.99952 8.79998 6.99952 8.09998C6.99952 7.69998 6.99952 7.09998 7.29952 6.49998C7.29952 6.49998 8.69952 6.49998 10.0995 7.79998C10.5995 7.59998 11.2995 7.49998 11.9995 7.49998C12.6995 7.49998 13.3995 7.59998 13.9995 7.79998C15.2995 6.49998 16.7995 6.49998 16.7995 6.49998C16.9995 7.09998 16.9995 7.69998 16.9995 8.09998C16.9995 8.89998 16.8995 9.29998 16.7995 9.49998C17.4995 10.3 17.9995 11.3 17.9995 12.5C17.9995 14.7 16.2995 16 13.9995 16.5C14.5995 17 14.9995 17.9 14.9995 18.8V21.4C14.9995 21.7 15.2995 22 15.6995 21.9C19.3995 20.4 21.9995 16.8 21.9995 12.6C21.9995 6.59998 16.8995 1.89998 10.8995 2.59998Z" fill="currentColor"/>
</svg>
