<svg width="24" height="25" viewBox="0 0 24 25" fill="none" xmlns="http://www.w3.org/2000/svg">
<path d="M8 3.5C5.243 3.5 3 5.743 3 8.5V16.5C3 19.257 5.243 21.5 8 21.5H16C18.757 21.5 21 19.257 21 16.5V8.5C21 5.743 18.757 3.5 16 3.5H8ZM8 5.5H16C17.654 5.5 19 6.846 19 8.5V16.5C19 18.154 17.654 19.5 16 19.5H8C6.346 19.5 5 18.154 5 16.5V8.5C5 6.846 6.346 5.5 8 5.5ZM17 6.5C16.7348 6.5 16.4804 6.60536 16.2929 6.79289C16.1054 6.98043 16 7.23478 16 7.5C16 7.76522 16.1054 8.01957 16.2929 8.20711C16.4804 8.39464 16.7348 8.5 17 8.5C17.2652 8.5 17.5196 8.39464 17.7071 8.20711C17.8946 8.01957 18 7.76522 18 7.5C18 7.23478 17.8946 6.98043 17.7071 6.79289C17.5196 6.60536 17.2652 6.5 17 6.5ZM12 7.5C9.243 7.5 7 9.743 7 12.5C7 15.257 9.243 17.5 12 17.5C14.757 17.5 17 15.257 17 12.5C17 9.743 14.757 7.5 12 7.5ZM12 9.5C13.654 9.5 15 10.846 15 12.5C15 14.154 13.654 15.5 12 15.5C10.346 15.5 9 14.154 9 12.5C9 10.846 10.346 9.5 12 9.5Z" fill="currentColor"/>
</svg>
