<svg width="24" height="25" viewBox="0 0 24 25" fill="none" xmlns="http://www.w3.org/2000/svg">
<path d="M20.5684 3.51066C20.236 3.47541 19.8747 3.52731 19.5117 3.67081C19.0617 3.84781 12.0105 6.81397 5.4375 9.58097L3.26562 10.495C2.42463 10.836 2 11.3906 2 12.1376C2 12.6606 2.22134 13.37 3.27734 13.788L6.94336 15.2567C7.26036 16.2078 7.99664 18.4158 8.18164 19.0028C8.29164 19.3508 8.56948 20.2275 9.27148 20.4325C9.41548 20.4815 9.56575 20.5068 9.71875 20.5068C10.1617 20.5068 10.4807 20.3006 10.6367 20.1806L12.9668 18.2099L15.7969 20.8271C15.9059 20.9381 16.4828 21.4989 17.2578 21.4989C18.2248 21.4989 18.9583 20.694 19.1113 19.915C19.1943 19.488 21.9238 5.786 21.9238 5.788C22.1688 4.689 21.7283 4.11889 21.4453 3.87589C21.2028 3.66839 20.9007 3.54591 20.5684 3.51066ZM19.9062 5.67081C19.5292 7.56081 17.4741 17.8772 17.1621 19.3642L13.0254 15.538L10.2188 17.915L10.9961 14.8739C10.9961 14.8739 16.3586 9.4458 16.6816 9.1298C16.9416 8.8768 16.9961 8.78811 16.9961 8.70011C16.9961 8.58311 16.9359 8.49894 16.7969 8.49894C16.6719 8.49894 16.5021 8.61872 16.4121 8.67472C15.2688 9.38753 10.4002 12.1612 8.00391 13.5243L4.52734 12.1357L6.21484 11.4267C10.5138 9.61667 18.1703 6.39281 19.9062 5.67081Z" fill="currentColor"/>
</svg>
