<svg width="24" height="25" viewBox="0 0 24 25" fill="none" xmlns="http://www.w3.org/2000/svg">
<path d="M5 3.5C3.895 3.5 3 4.395 3 5.5V19.5C3 20.605 3.895 21.5 5 21.5H19C20.105 21.5 21 20.605 21 19.5V5.5C21 4.395 20.105 3.5 19 3.5H5ZM5 5.5H19V19.5H5V5.5ZM11.791 9.35742C11.201 9.35242 10.701 9.36005 10.418 9.49805C10.23 9.59005 10.0848 9.79659 10.1738 9.80859C10.2828 9.82259 10.5291 9.87469 10.6621 10.0547C10.8311 10.2857 10.8262 10.8047 10.8262 10.8047C10.8262 10.8047 10.9227 12.2322 10.5977 12.4102C10.3747 12.5322 10.0691 12.2844 9.41211 11.1484C9.07511 10.5654 8.82227 9.92188 8.82227 9.92188C8.82227 9.92188 8.77255 9.80033 8.68555 9.73633C8.57855 9.65833 8.42969 9.63281 8.42969 9.63281L6.85938 9.64062C6.85938 9.64062 6.62216 9.64114 6.53516 9.74414C6.45816 9.83614 6.5293 10.0176 6.5293 10.0176C6.5293 10.0176 7.7603 12.8868 9.1543 14.3398C10.4333 15.6718 11.8828 15.5508 11.8828 15.5508H12.541C12.541 15.5508 12.7408 15.5621 12.8418 15.4531C12.9348 15.3521 12.9316 15.1953 12.9316 15.1953C12.9316 15.1953 12.9191 14.3116 13.3281 14.1816C13.7321 14.0536 14.2498 15.0351 14.7988 15.4121C15.2128 15.6981 15.5293 15.6367 15.5293 15.6367L16.998 15.6172C16.998 15.6172 17.7653 15.5689 17.4043 14.9609C17.3743 14.9109 17.1925 14.5133 16.3125 13.6953C15.3905 12.8393 15.514 12.9771 16.623 11.4961C17.299 10.5951 17.5694 10.0446 17.4844 9.80859C17.4034 9.58259 16.9062 9.64258 16.9062 9.64258L15.2539 9.65234C15.2539 9.65234 15.1301 9.63445 15.0391 9.68945C14.9501 9.74345 14.8926 9.86719 14.8926 9.86719C14.8926 9.86719 14.6312 10.5662 14.2812 11.1602C13.5462 12.4132 13.2519 12.4784 13.1309 12.4004C12.8509 12.2204 12.9219 11.6742 12.9219 11.2852C12.9219 10.0712 13.1045 9.56459 12.5625 9.43359C12.3825 9.38959 12.251 9.36242 11.791 9.35742Z" fill="currentColor"/>
</svg>
