<svg width="159" height="193" viewBox="0 0 159 193" fill="none" xmlns="http://www.w3.org/2000/svg">
<g clip-path="url(#clip0_80_1848)">
<path d="M80.0049 70C99.3349 70 115.005 54.33 115.005 35C115.005 15.67 99.3349 0 80.0049 0C60.6749 0 45.0049 15.67 45.0049 35C45.0049 54.33 60.6749 70 80.0049 70Z" fill="#EF4523"/>
<path fill-rule="evenodd" clip-rule="evenodd" d="M126.892 82.0537C127.184 84.1847 126.978 86.3543 126.289 88.3927C125.601 90.4311 124.449 92.2831 122.924 93.804C121.398 95.3249 119.541 96.4734 117.496 97.1597C115.452 97.8461 113.276 98.0516 111.139 97.7603H48.0601C45.9176 98.0632 43.7339 97.8663 41.6806 97.1851C39.6274 96.504 37.7607 95.3571 36.2273 93.8348C34.694 92.3125 33.5357 90.4562 32.8437 88.4119C32.1518 86.3676 31.9449 84.1912 32.2394 82.0537V34.663H0.733994V82.0537C0.733994 113.647 16.5772 129.444 48.2637 129.444H64.0165V192.271H95.1824V129.174H111.003C142.69 129.174 158.533 113.377 158.533 81.7829V34.3922H126.892V82.0537Z" fill="black"/>
</g>
<defs>
<clipPath id="clip0_80_1848">
<rect width="159" height="193" fill="white"/>
</clipPath>
</defs>
</svg>
